<?xml version="1.0" standalone="no"?>
<!DOCTYPE svg PUBLIC "-//W3C//DTD SVG 20010904//EN"
 "http://www.w3.org/TR/2001/REC-SVG-20010904/DTD/svg10.dtd">
<svg version="1.0" xmlns="http://www.w3.org/2000/svg"
 width="121.000000pt" height="121.000000pt" viewBox="0 0 121.000000 121.000000"
 preserveAspectRatio="xMidYMid meet">
<metadata>
Created by potrace 1.11, written by Peter Selinger 2001-2013
</metadata>
<g transform="translate(0.000000,121.000000) scale(0.100000,-0.100000)"
fill="#000000" stroke="none">
<path d="M524 1180 c-271 -40 -472 -257 -499 -535 -30 -314 251 -615 575 -615
155 0 288 58 405 175 91 90 137 171 160 282 29 137 16 239 -47 373 -104 219
-358 356 -594 320z m66 -40 c0 -23 4 -30 20 -30 11 0 20 -4 20 -10 0 -5 -13
-10 -30 -10 -28 0 -30 2 -30 40 0 22 5 40 10 40 6 0 10 -13 10 -30z m-46 -16
c17 -36 17 -36 -4 -31 -11 3 -23 1 -26 -4 -13 -21 -31 -8 -27 19 11 65 30 71
57 16z m166 23 c0 -8 -10 -13 -22 -13 -14 1 -23 -5 -23 -14 0 -10 8 -14 23
-12 29 3 25 -22 -5 -26 -27 -4 -47 22 -39 53 5 20 13 25 36 25 18 0 30 -5 30
-13z m-276 -23 c-18 -15 -18 -15 4 -11 27 6 28 -1 5 -20 -17 -13 -16 -14 5
-10 30 7 28 -7 -3 -21 -23 -11 -26 -9 -40 25 -17 41 -18 39 15 51 32 12 39 6
14 -14z m366 1 c29 -35 -26 -85 -58 -53 -13 13 -16 50 -5 61 12 12 50 7 63 -8z
m-430 -24 c0 -5 -8 -12 -17 -14 -12 -3 -8 -5 9 -6 15 0 30 -6 34 -13 8 -13
-33 -51 -47 -42 -15 9 -10 27 6 21 8 -4 17 -2 20 3 4 6 -7 10 -24 10 -32 0
-41 16 -19 38 14 14 38 16 38 3z m503 -39 c-7 -46 -9 -48 -28 -29 -8 9 -22 14
-30 11 -23 -9 -18 7 11 37 35 37 54 29 47 -19z m70 -10 c20 -18 23 -34 3 -26
-8 3 -21 -4 -29 -16 -9 -13 -20 -19 -27 -15 -8 5 -7 12 5 25 11 12 14 26 10
41 -8 23 3 21 38 -9z m-228 3 c131 -35 238 -123 301 -249 32 -66 37 -87 42
-169 9 -181 -62 -321 -210 -418 -82 -52 -165 -73 -275 -67 -109 6 -181 33
-259 97 -104 83 -162 196 -171 331 -10 141 40 264 146 363 121 111 273 151
426 112z m-431 -45 l30 -19 -28 -10 c-15 -6 -25 -15 -21 -20 3 -5 1 -12 -4
-15 -10 -6 -42 64 -34 77 7 12 26 8 57 -13z m706 -3 c0 -17 -44 -59 -53 -51
-7 7 33 64 45 64 4 0 8 -6 8 -13z m-759 -59 c9 -17 7 -25 -10 -41 l-21 -21
-28 27 -27 28 23 19 c26 21 47 17 63 -12z m795 6 c-6 -22 -4 -25 14 -19 29 9
25 -8 -9 -33 -33 -24 -43 -20 -34 17 5 22 4 24 -9 14 -25 -21 -30 -1 -6 24 30
32 52 31 44 -3z m-836 -91 c0 -18 -7 -16 -41 8 -16 11 -27 25 -23 30 7 12 64
-21 64 -38z m910 7 c6 -11 8 -26 4 -32 -5 -7 -10 -4 -15 10 -9 23 -33 29 -45
11 -3 -6 -1 -16 5 -22 8 -8 11 -7 11 3 0 10 3 11 11 3 13 -13 4 -33 -15 -33
-7 0 -19 11 -26 25 -11 20 -11 27 0 40 18 22 57 19 70 -5z m-965 -20 c3 -5 15
-10 26 -10 11 0 17 -4 14 -10 -3 -5 -15 -10 -26 -10 -21 0 -26 -16 -6 -23 6
-2 9 -8 5 -12 -9 -9 -68 14 -68 27 0 34 40 62 55 38z m-7 -112 c3 -29 -25 -52
-52 -42 -41 16 -22 77 22 72 21 -2 28 -9 30 -30z m1012 22 c0 -5 -11 -12 -25
-16 -19 -5 -24 -11 -20 -25 4 -11 2 -19 -3 -19 -8 0 -21 31 -22 52 0 6 24 13
58 17 6 0 12 -3 12 -9z m20 -80 c0 -5 -9 -10 -21 -10 -12 0 -23 -8 -26 -20 -3
-11 -9 -20 -14 -20 -10 0 -12 43 -2 53 10 11 63 8 63 -3z m-1040 -17 c0 -31
-16 -45 -45 -41 -40 4 -45 28 -6 28 21 0 31 5 31 15 0 8 5 15 10 15 6 0 10 -8
10 -17z m1034 -56 c19 -14 19 -48 -1 -54 -7 -3 -9 3 -6 16 4 16 1 21 -16 21
-18 0 -20 -4 -15 -27 7 -25 6 -27 -9 -14 -21 17 -22 35 -1 55 19 19 25 20 48
3z m-1104 -22 c0 -21 20 -19 21 3 1 16 2 16 6 0 2 -10 11 -18 19 -18 8 0 14
-4 14 -10 0 -5 -6 -10 -12 -10 -7 0 -23 -3 -34 -6 -18 -5 -22 -1 -26 25 -2 17
-1 31 4 31 4 0 8 -7 8 -15z m78 -152 l-22 -23 -23 22 -23 22 22 23 22 23 23
-22 23 -22 -22 -23z m996 48 c17 -18 17 -21 0 -46 l-17 -26 -25 25 c-25 25
-25 26 -7 46 22 25 27 25 49 1z m-874 -206 c18 -21 2 -35 -33 -28 -27 5 -27 6
-11 24 21 23 28 24 44 4z m741 1 c17 10 22 -27 6 -43 -13 -13 -19 -14 -31 -3
-19 15 -20 32 -4 48 8 8 14 9 16 2 2 -5 8 -8 13 -4z m-714 -72 c-13 -25 -16
-26 -22 -11 -4 9 -15 17 -24 17 -10 0 -6 7 14 20 37 24 52 12 32 -26z m677 17
c19 -21 8 -35 -21 -24 -16 6 -16 5 -4 -10 17 -22 3 -22 -21 0 -24 22 -23 37 3
30 15 -4 19 -2 15 9 -8 20 8 17 28 -5z m-641 -29 c-6 -14 -4 -15 8 -5 11 9 18
8 32 -2 16 -11 16 -16 5 -34 -13 -21 -28 -28 -28 -13 0 4 5 13 12 20 19 19 0
27 -20 9 -24 -22 -32 -21 -32 2 0 28 11 52 21 46 4 -3 5 -13 2 -23z m585 -13
c17 -27 5 -40 -14 -15 -8 11 -14 23 -14 28 0 15 15 8 28 -13z m-33 -10 c4 -6
4 -13 0 -17 -3 -3 -10 0 -15 8 -13 20 -12 3 0 -21 7 -12 7 -19 1 -19 -14 0
-33 38 -26 50 8 13 32 13 40 -1z m-465 -27 c0 -14 2 -15 10 -2 16 26 22 3 6
-27 -15 -28 -16 -28 -22 -5 -5 18 -9 20 -20 11 -17 -14 -18 -8 -3 25 13 27 29
26 29 -2z m418 -7 c14 -31 15 -35 4 -35 -8 0 -32 43 -32 55 0 15 19 1 28 -20z
m-341 -3 c19 -12 9 -47 -15 -50 -27 -4 -39 22 -22 43 14 17 20 18 37 7z m306
-7 c-1 -5 4 -16 10 -24 10 -11 8 -13 -12 -6 -16 5 -21 4 -17 -4 4 -6 2 -11 -4
-11 -7 0 -14 9 -17 20 -7 27 -29 19 -26 -9 3 -27 -13 -27 -20 0 -7 27 -33 19
-29 -9 3 -17 -2 -22 -20 -22 -20 0 -24 5 -23 28 0 23 5 27 30 29 17 1 44 7 60
12 36 12 71 10 68 -4z m-221 -29 c-2 -9 2 -16 8 -16 5 0 10 -4 10 -10 0 -11
-43 -14 -53 -4 -4 4 -3 12 1 18 4 6 7 14 8 19 1 4 2 10 3 13 3 14 26 -5 23
-20z"/>
<path d="M753 1105 c-3 -9 -3 -19 1 -22 8 -9 37 18 30 28 -8 14 -24 11 -31 -6z"/>
<path d="M465 1033 c-122 -44 -214 -127 -268 -241 -30 -64 -32 -73 -32 -187 0
-116 1 -123 33 -188 65 -133 193 -227 341 -250 187 -29 382 75 462 247 108
230 17 487 -210 595 -69 32 -85 36 -176 39 -76 2 -112 -2 -150 -15z m298 -32
c71 -28 171 -118 211 -190 67 -124 67 -274 -1 -403 -160 -305 -600 -296 -753
16 -29 58 -35 82 -38 156 -10 203 96 363 284 430 79 27 212 23 297 -9z"/>
<path d="M524 936 c9 -45 1 -46 -19 -3 l-15 32 5 -32 c2 -18 0 -33 -5 -33 -6
0 -10 4 -10 8 0 5 -7 17 -15 28 -13 17 -14 16 -5 -16 14 -48 13 -49 -15 -15
l-25 30 10 -29 c13 -35 6 -45 -12 -17 -21 33 -30 24 -12 -11 l17 -33 -25 23
c-31 28 -44 28 -24 0 24 -34 19 -44 -9 -18 -14 13 -25 19 -25 13 0 -29 38 -43
113 -43 45 0 77 -4 77 -10 0 -6 31 -10 73 -10 43 0 78 -5 85 -12 9 -9 12 -8
12 6 0 37 32 10 49 -42 10 -28 26 -61 35 -71 10 -11 15 -24 12 -30 -4 -6 5
-34 19 -62 22 -42 25 -59 19 -88 -4 -20 -8 -43 -9 -51 0 -27 -35 -22 -65 10
-17 18 -30 36 -30 41 0 5 -4 9 -9 9 -5 0 -19 16 -30 36 -18 30 -19 39 -9 52
11 13 10 15 -5 9 -17 -6 -18 -3 -13 30 7 42 6 44 -45 91 -34 32 -37 32 -65 17
-33 -17 -54 -19 -54 -5 0 16 -43 33 -82 32 -27 -1 -38 2 -38 12 0 14 -50 56
-66 56 -4 0 3 -12 17 -27 18 -20 20 -25 7 -20 -48 18 -51 17 -23 -7 33 -28 31
-31 -12 -16 l-28 10 23 -19 c29 -25 28 -33 -4 -20 -37 13 -42 4 -7 -15 l28
-15 -35 -1 -35 -2 30 -13 30 -14 -35 -1 -35 -2 30 -13 30 -14 -27 -1 c-16 0
-28 -4 -28 -10 0 -5 11 -10 25 -10 34 0 32 -18 -2 -23 l-28 -4 28 -2 c30 -1
38 -21 8 -21 -35 0 -34 -20 1 -21 21 -1 26 -3 13 -6 -35 -9 -41 -23 -10 -23
l30 -1 -27 -15 c-36 -19 -35 -21 5 -17 l32 4 -28 -16 c-36 -21 -30 -27 14 -15
l34 9 -30 -26 c-29 -24 -26 -25 20 -7 18 6 17 4 -4 -19 -27 -30 -18 -36 17
-11 28 20 28 7 0 -25 l-23 -25 27 17 c35 22 45 22 26 0 -31 -37 -30 -46 3 -23
l34 25 -17 -27 c-26 -39 -22 -45 9 -17 23 21 25 22 19 4 -17 -45 -17 -49 2
-27 26 29 34 28 22 -4 -15 -39 -12 -41 15 -9 l25 30 -10 -28 c-15 -41 -12 -45
11 -17 l21 25 -5 -27 c-5 -34 6 -36 21 -5 10 21 11 21 12 -8 l2 -30 13 30 14
30 1 -33 c0 -20 4 -31 10 -27 6 3 10 15 10 26 0 29 18 23 23 -9 l4 -27 2 28
c1 31 21 38 21 7 0 -11 5 -20 10 -20 6 0 10 12 10 28 l1 27 14 -30 13 -30 2
30 c1 29 2 29 12 8 15 -31 26 -29 21 5 l-5 27 21 -25 c23 -28 26 -24 10 17
l-10 28 27 -25 c24 -22 26 -23 20 -5 -18 46 -17 49 9 20 25 -28 26 -25 8 23
-5 13 0 11 20 -7 31 -28 35 -22 10 17 l-18 27 27 -17 c38 -25 45 -22 18 7 -26
28 -16 33 18 9 28 -20 28 -7 0 24 l-23 25 33 -17 c35 -18 44 -9 11 12 -28 18
-19 25 15 13 17 -7 26 -7 26 -1 0 6 -4 10 -8 10 -5 0 -17 7 -28 15 -18 15 -17
16 14 10 39 -8 41 -1 5 20 l-28 15 40 -5 40 -6 -35 21 -35 21 33 -4 c39 -4 42
8 5 19 l-28 8 35 6 35 6 -35 11 c-32 10 -33 11 -8 12 39 1 44 19 6 24 l-33 3
35 9 35 9 -35 6 -35 7 28 11 c37 15 34 25 -4 17 -22 -5 -29 -4 -25 4 4 6 13
11 21 11 8 0 17 5 21 12 5 8 -2 9 -27 5 -32 -6 -33 -6 -15 8 11 8 23 15 28 15
4 0 8 4 8 10 0 6 -9 6 -26 0 -39 -15 -41 -12 -9 16 28 24 24 25 -22 7 -14 -5
-12 0 6 20 28 31 22 35 -14 11 -31 -20 -32 -8 -2 25 l22 25 -27 -17 c-37 -23
-41 -21 -22 8 18 27 5 35 -16 10 -21 -25 -23 -9 -4 22 l18 28 -25 -22 c-35
-32 -42 -29 -23 10 l16 32 -31 -30 -32 -30 16 40 16 40 -26 -30 -27 -30 7 35
6 35 -16 -27 c-20 -36 -28 -35 -20 2 8 38 -2 39 -17 3 l-12 -28 -4 35 -4 35
-13 -35 -13 -35 -1 35 c-1 35 -15 32 -24 -5 -4 -18 -5 -18 -6 2 -2 33 -21 39
-21 7 0 -30 -15 -23 -23 11 -3 13 -5 8 -6 -13 -1 -34 -21 -36 -21 -2 0 10 -5
22 -11 26 -9 5 -10 -3 -5 -30z"/>
<path d="M182 938 c3 -7 13 -15 22 -16 12 -3 17 1 14 10 -3 7 -13 15 -22 16
-12 3 -17 -1 -14 -10z"/>
<path d="M105 830 c-3 -5 -1 -10 4 -10 6 0 11 5 11 10 0 6 -2 10 -4 10 -3 0
-8 -4 -11 -10z"/>
<path d="M72 738 c7 -19 38 -22 38 -4 0 10 -9 16 -21 16 -12 0 -19 -5 -17 -12z"/>
<path d="M962 258 c2 -6 10 -14 16 -16 7 -2 10 2 6 12 -7 18 -28 22 -22 4z"/>
<path d="M445 111 c-3 -5 -1 -12 4 -15 5 -3 11 1 15 9 6 16 -9 21 -19 6z"/>
</g>
</svg>
